# xmcd CD database file generated by Grip 3.0.7
# 
# Track frame offsets:
#       150
#       16682
#       29967
#       48132
#       59520
#       77142
#       88890
#       101820
#       118477
#       133937
# 
# Disc length: 2029 seconds
# 
# Revision: 2
# Processed by: cddbd v1.4PL0 Copyright (c) Steve Scherf et al.
# Submitted via: Grip 3.0.7
# 
DISCID=9007eb0a
DTITLE=Kaya - Kaya
DYEAR=1991
DGENRE=Blues
TTITLE0=Traffic jam
TTITLE1=Stay
TTITLE2=Shower the people
TTITLE3=Sweet nothings
TTITLE4=Wishin' and hopin'
TTITLE5=Anytime at all
TTITLE6=Chevrolet
TTITLE7=Love song
TTITLE8=Shake your booty
TTITLE9=Walk away Rene
EXTD=
EXTT0=
EXTT1=
EXTT2=
EXTT3=
EXTT4=
EXTT5=
EXTT6=
EXTT7=
EXTT8=
EXTT9=
PLAYORDER=
